<svg width="23" height="25" viewBox="0 0 23 25" fill="none" xmlns="http://www.w3.org/2000/svg">
<path d="M20.6107 14.1751L20.0659 7.38221C19.9911 6.52291 19.269 5.86596 18.4068 5.87077H15.8942C15.8769 2.71369 13.5206 0.150024 10.6318 0.150024C7.7431 0.150024 5.3896 2.71173 5.37045 5.86782H2.8549C1.99177 5.86399 1.27057 6.52573 1.2015 7.38695L0.159022 20.427C0.153268 20.5085 0.150391 20.591 0.150391 20.6783V20.6773C0.15135 21.6363 0.53305 22.5551 1.21013 23.2321C1.88817 23.9102 2.80694 24.2919 3.76496 24.2928H16.9825C17.8054 24.2967 18.6196 24.1183 19.3648 23.7701C21.1582 22.955 22.402 21.2718 22.6561 19.3192C22.9093 17.3656 22.1363 15.4207 20.6105 14.1749L20.6107 14.1751ZM10.6317 1.37765C12.8471 1.37765 14.6491 3.38972 14.6665 5.87082H6.59817C6.61447 3.39063 8.41626 1.37765 10.6317 1.37765ZM13.1809 23.0645L3.76493 23.0654C2.4472 23.0635 1.3798 21.9951 1.37786 20.6774C1.37786 20.6218 1.37786 20.5662 1.38361 20.5134L2.42418 7.48958C2.44336 7.26613 2.63037 7.09445 2.85479 7.09541H4.83617H4.85343H5.37036V8.90417C5.37036 9.24271 5.64561 9.51796 5.98415 9.51796C6.32365 9.51796 6.59794 9.24271 6.59794 8.90417V7.09828H14.6702V8.90704H14.6712C14.6712 9.24558 14.9455 9.52083 15.285 9.52083C15.6235 9.52083 15.8988 9.24558 15.8988 8.90704V7.09828H18.4096C18.6321 7.09445 18.8211 7.26132 18.845 7.48286L19.3169 13.3752C18.5851 13.0395 17.7901 12.8631 16.9855 12.8592C15.3906 12.8583 13.8686 13.5248 12.7876 14.6968C11.7059 15.8687 11.164 17.4387 11.2915 19.0279C11.42 20.6171 12.2065 22.0806 13.4609 23.0644L13.1809 23.0645ZM18.8499 22.655L18.8508 22.6559C18.2658 22.9283 17.628 23.0683 16.9826 23.0654C15.5412 23.0674 14.1859 22.3759 13.3401 21.2087C12.4952 20.0406 12.2622 18.5368 12.7148 17.1683C13.1665 15.7988 14.2493 14.7304 15.6237 14.296C16.999 13.8616 18.4989 14.1138 19.6555 14.975C20.8074 15.8123 21.4844 17.152 21.4758 18.5752C21.4749 19.4355 21.2265 20.2775 20.7613 21.0007C20.2962 21.7238 19.6325 22.2992 18.8509 22.6569L18.8499 22.655Z" fill="white" stroke="white" stroke-width="0.3"/>
</svg>
