<svg width="11" height="10" viewBox="0 0 11 10" fill="none" xmlns="http://www.w3.org/2000/svg">
<path d="M4.51318 0.342815C4.80868 -0.114271 5.47735 -0.114271 5.77285 0.342815L7.03829 2.30022C7.1395 2.45676 7.29536 2.57001 7.47551 2.61787L9.72815 3.21651C10.2542 3.35631 10.4608 3.99225 10.1174 4.41454L8.64686 6.22291C8.52925 6.36754 8.46971 6.55077 8.47985 6.73689L8.60663 9.06427C8.63623 9.60775 8.09525 10.0008 7.58752 9.8047L5.41322 8.96493C5.23934 8.89777 5.04668 8.89777 4.8728 8.96493L2.69851 9.8047C2.19077 10.0008 1.6498 9.60775 1.67939 9.06427L1.80617 6.73689C1.81631 6.55077 1.75678 6.36754 1.63916 6.22291L0.168606 4.41454C-0.174793 3.99225 0.0318391 3.35631 0.55787 3.21651L2.81051 2.61787C2.99066 2.57001 3.14653 2.45676 3.24773 2.30022L4.51318 0.342815Z" fill="#D8BA43"/>
</svg>
